<svg version="1.2" xmlns="http://www.w3.org/2000/svg" viewBox="0 0 131 38" width="131" height="38">
	<title>logo</title>
	<style>
		.s0 { fill: #007aff } 
		.s1 { fill: #006ce2 } 
		.s2 { fill: #000000 } 
	</style>
	<path class="s0" d="m10 8.9q0-0.1-0.1-0.2 0 0 0 0 0-0.1-0.1-0.1-0.2-0.3-0.5-0.6 0 0 0 0-0.2-0.3-0.4-0.6-0.1-0.1-0.2-0.1c-0.1 0-0.3 0-0.4 0.1q-1.4 0.6-2.6 1.7-1.9 1.7-2.7 4.1c-0.2 0.5-0.3 0.9-0.4 1.4q0 0.1 0 0.1 0 0.1 0 0.1 0 0.1 0 0.2 0 0.1 0 0.2 0 0-0.1 0.1 0 0.2 0 0.4 0 0.8 0 1.5 0 0.1 0 0.2 0 0.1 0 0.2 0 0.1 0.1 0.1 0 0.1 0 0.2 0 0.1 0 0.1 0 0.1 0 0.2 0 0 0 0 0 0.2 0.1 0.4 0 0 0 0.1c0.1 0.3 0.1 0.6 0.3 0.9q0.2 0.6 0.5 1.3 0 0 0 0.1 0.1 0.1 0.1 0.1 0 0.1 0 0.1 0 0 0 0 0.1 0.1 0.1 0.1 0.3 0.5 0.7 1.1 0 0 0 0 0 0 0 0 0.1 0.2 0.2 0.3 0.1 0.1 0.2 0.2 0.3 0.4 0.6 0.7 0.2 0.2 0.4 0.4 0 0 0.1 0 0 0.1 0.1 0.1 0 0 0 0.1 0.3 0.2 0.6 0.4 0.1 0.1 0.2 0.2 0.1 0 0.1 0c0.1 0.1 0.1 0.2 0 0.3q0 0.1 0 0.1 0 0.3-0.1 0.5 0 0.1 0 0.1-0.1 0.3-0.1 0.7-0.1 0.1-0.1 0.1 0 0 0 0.1 0 0 0 0.1 0 0.1-0.1 0.3 0 0.1 0 0.2-0.1 0-0.1 0.1-0.1-0.1-0.2-0.2-0.1 0-0.2-0.1-0.1 0-0.2-0.1-0.2-0.1-0.3-0.2 0 0-0.1 0-0.1-0.1-0.1-0.1-0.1-0.1-0.3-0.2-0.1-0.1-0.2-0.2-0.1 0-0.1-0.1-0.1 0-0.1 0 0-0.1-0.1-0.1 0 0 0 0 0 0 0-0.1 0 0 0 0-0.1 0-0.3-0.2 0 0 0 0-0.5-0.5-1-1-0.1 0-0.1 0 0-0.1-0.1-0.3-0.1 0-0.2-0.1 0 0 0 0 0-0.1-0.1-0.2 0 0 0 0-0.1-0.1-0.1-0.1-0.1-0.1-0.1-0.2-0.1-0.1-0.1-0.1 0 0 0 0-0.1-0.1-0.2-0.2 0 0 0 0-0.1-0.1-0.1-0.2-0.1-0.2-0.2-0.3 0-0.1-0.1-0.1 0 0 0 0-0.1-0.2-0.2-0.4 0 0 0-0.1-0.1-0.1-0.2-0.2 0 0 0-0.1 0 0 0 0 0 0 0 0-0.1-0.1-0.1-0.1-0.1-0.3-0.2-0.5-0.1-0.1-0.1-0.2 0-0.1-0.1-0.2 0-0.2-0.1-0.3 0 0 0 0 0-0.1 0-0.1 0 0 0-0.1-0.1-0.1-0.1-0.2-0.1-0.1-0.1-0.4-0.1 0-0.1 0 0-0.2-0.1-0.4 0-0.1 0-0.2-0.1-0.1-0.1-0.3 0 0 0 0 0-0.1 0-0.2 0 0-0.1 0 0-0.1 0-0.1 0-0.1 0-0.1 0-0.1 0-0.2 0 0 0 0-0.1-0.2-0.1-0.4 0 0 0-0.1 0 0 0-0.1 0 0 0-0.1 0-0.1-0.1-0.2 0-0.1 0-0.3 0-0.1 0-0.2 0-0.5 0-0.9 0-0.2 0-0.2 0-0.2 0-0.3 0-0.2 0-0.3 0-0.1 0.1-0.3 0-0.1 0-0.1 0-0.1 0-0.2 0-0.1 0-0.1 0-0.1 0-0.1 0 0 0-0.1 0 0 0 0 0-0.1 0.1-0.2 0-0.1 0-0.1 0-0.1 0-0.2 0.1-0.2 0.1-0.3 0 0 0 0 0-0.1 0-0.1 0-0.1 0.1-0.3 0 0 0-0.1 0 0 0-0.1 0 0 0.1-0.1 0-0.2 0.1-0.3 0.1-0.4 0.2-0.7 0-0.1 0.1-0.2 0.2-0.5 0.3-0.9 0.1-0.1 0.1-0.2 0.1-0.1 0.1-0.1 0 0 0 0 0.4-0.7 0.8-1.4 0.2-0.3 0.5-0.6 0 0 0 0 0.7-0.8 1.5-1.5 0.3-0.3 0.5-0.5 0 0 0 0 0.1-0.1 0.2-0.1 1-0.8 2.2-1.4c1.1-0.5 2.4-0.9 3.7-1.1q1.8-0.2 3.6 0.1 1.6 0.2 3 0.8 2.5 1.1 4.3 3 0.2 0.3 0.5 0.6 0 0.1 0.1 0.2 0.2 0.3 0.4 0.6 0 0 0.1 0 0 0.1 0.1 0.1 0 0.1 0 0.1 0.1 0.1 0.2 0.2 0 0 0 0.1 0 0 0.1 0.1 0 0.1 0 0.2 0.3 0.5 0.6 1 0 0.1 0.1 0.2 0 0.1 0.1 0.2 0 0.1 0 0.2 0.1 0.1 0.1 0.2 0.1 0.1 0.1 0.2 0.1 0.1 0.1 0.2 0 0.1 0 0.2 0.1 0.2 0.2 0.3 0 0.2 0 0.4 0.1 0 0.1 0.1 0 0.2 0.1 0.5 0 0.1 0 0.2 0.1 0.2 0.1 0.4 0 0 0 0.1 0 0 0 0.2 0.1 0.2 0.1 0.4 0 0 0 0 0 0.2 0 0.4 0 0.1 0 0.2 0 0.6 0.1 1.1-0.1 0.2-0.1 0.4 0 0.2 0 0.3 0 0.1 0 0.2 0 0.2-0.1 0.4 0 0 0 0.2 0 0 0 0 0 0.1 0 0.2-0.1 0.3-0.1 0.5 0 0-0.1 0.1-0.1 0.4-0.1 0.7-0.7 2.3-2.1 4.1-0.2 0.3-0.4 0.6 0 0 0 0-0.5 0.4-0.9 0.8 0 0.1-0.1 0.2 0 0 0 0-0.1 0.1-0.3 0.2 0 0 0 0c-0.7 0.6-1.4 1.2-2.2 1.6q-0.1-0.2-0.1-0.3 0-0.1 0-0.3-0.1-0.2-0.1-0.3 0-0.1 0-0.1-0.1-0.1-0.1-0.1 0-0.1 0-0.1 0-0.1 0-0.1 0 0 0-0.1-0.1-0.3-0.1-0.5 0-0.1 0-0.1-0.1-0.1-0.1-0.1 0 0 0 0 0-0.2 0-0.3-0.1-0.1 0.1-0.2 0.1-0.1 0.3-0.2 0.4-0.3 0.7-0.6 0 0 0-0.1 0.1 0 0.1 0 0 0 0.1-0.1 0.1-0.1 0.2-0.2 0 0 0 0 0.3-0.3 0.5-0.5 0.3-0.4 0.6-0.7 0 0 0 0 0.3-0.5 0.6-1 0 0 0 0 0 0 0 0 0-0.1 0.1-0.1 0-0.1 0.1-0.2 0 0 0 0 0.1-0.2 0.1-0.3 0 0 0-0.1 0.1 0 0.1-0.1 0-0.1 0-0.1 0.1 0 0 0 0.1-0.1 0.2-0.3 0.1-0.3 0.2-0.6 0 0 0-0.1 0.1-0.2 0.1-0.4 0 0 0.1-0.1 0-0.1 0-0.2 0 0 0-0.1 0.1-0.1 0.1-0.3 0 0 0 0 0-0.1 0-0.2 0 0 0.1-0.1 0-0.1 0-0.2 0 0 0-0.1 0-0.1 0-0.2 0 0 0-0.1 0.1-0.1 0.1-0.2 0-0.1 0-0.2 0-0.4 0-0.7 0-0.2 0-0.3 0-0.1 0-0.2-0.1-0.2-0.1-0.3 0-0.1 0-0.2 0-0.1 0-0.2 0 0 0-0.2 0 0-0.1-0.1 0 0 0-0.1 0-0.1 0-0.1 0 0 0-0.1 0-0.1-0.1-0.2 0-0.2 0-0.4 0-0.1 0-0.1 0 0-0.1 0 0-0.1 0-0.1 0-0.1 0-0.1 0 0 0 0-0.1-0.1-0.1-0.3-0.1-0.2-0.1-0.3 0-0.1-0.1-0.3 0 0-0.1-0.1 0 0 0 0 0-0.1 0-0.1 0 0 0-0.1-0.1-0.2-0.2-0.5-0.2-0.3-0.4-0.6 0 0-0.1-0.1-0.3-0.5-0.6-0.9 0-0.1 0-0.1-0.6-0.8-1.3-1.4-0.2-0.2-0.5-0.3 0 0 0 0 0-0.1-0.1-0.1-0.9-0.7-1.9-1.1c-0.1-0.1-0.3-0.1-0.4-0.1q-0.1 0-0.1 0.1-0.3 0.4-0.6 0.7-0.7 0.9-1.4 1.8-0.1 0.1-0.2 0.1-0.4 0-0.9 0-0.1 0-0.2 0-0.1 0-0.2 0-0.3 0-0.6 0-0.5 0-0.9 0-0.2 0-0.3-0.1-0.1-0.2-0.2-0.4-0.3-0.3-0.5-0.6-0.1 0-0.1 0z"/>
	<path class="s1" d="m16.8 25.2q0.1 0.3 0.1 0.5 0 0.1 0 0.1 0.1 0.2 0.1 0.3 0 0.1 0 0.1 0 0.1 0 0.2 0 0 0 0 0.1 0 0.1 0.1 0 0.1 0 0.1 0 0 0 0.1 0 0.1 0 0.1 0 0.1 0.1 0.2 0 0 0 0 0 0 0 0.1 0 0.1 0 0.1 0 0.1 0 0.2 0 0 0 0 0 0 0.1 0.1 0 0.1 0 0.1 0 0.1 0 0.2 0 0 0 0 0.1 0.1 0.1 0.3 0 0.1 0 0.2 0 0.1 0.1 0.2 0 0 0 0 0 0.2 0.1 0.4 0 0.2 0 0.4 0.1 0.2 0.1 0.5 0 0 0 0 0 0 0 0-0.1 0.1-0.1 0.2 0 0-0.1 0-0.1 0.1-0.3 0.3 0 0 0 0-0.1 0.1-0.1 0.1 0 0 0 0-0.1 0.1-0.2 0.2 0 0 0 0-0.3 0.3-0.6 0.6 0 0-0.1 0.1 0 0-0.1 0.1 0 0 0 0-0.2 0.2-0.3 0.3-0.4 0.4-0.7 0.8 0 0 0 0-0.4 0.3-0.7 0.6 0 0-0.1 0.1-0.1 0.1-0.2 0.2 0 0.1 0 0.1-0.1 0-0.2 0.1 0 0 0 0-0.1 0.1-0.2 0.2-0.4 0.4-0.8 0.8 0 0-0.1 0.1 0 0 0 0-0.2 0.2-0.3 0.3 0 0 0 0-0.2-0.1-0.2-0.2 0.2 0 0.2-0.2c0-0.2-0.1-0.4-0.1-0.6q0.1-0.3 0.1-0.7 0-0.2 0-0.3 0-0.2 0-0.4 0-0.3 0-0.5 0-0.3 0-0.6 0-0.3 0-0.5 0-0.4 0-0.8 0-0.2 0-0.5 0-0.5 0-1 0-0.3 0-0.6 0-0.1 0-0.2 0-0.2 0-0.3 0-3.6 0-7.2 0-0.1 0-0.2c-0.1-0.3 0-0.6 0-0.9-0.1-0.2 0-0.4 0-0.5q-0.1-0.1 0-0.2 0-0.1 0-0.3c0-1.5 0-3.1 0-4.6-0.1-0.9 0-1.9-0.1-2.8 0-0.2 0-0.2-0.2-0.2q0 0-0.1-0.1-0.1 0-0.1-0.1 0.9 0 1.8 0 0 0 0 0 0 0 0 0 0 0.1 0.1 0.2 0 0.1 0 0.1 0 0 0 0.1 0 0.1 0 0.1 0.1 0.2 0.1 0.5 0 0 0 0 0 0.1 0.1 0.2 0 0 0 0 0 0.2 0 0.4 0.1 0 0.1 0 0 0.1 0 0.1 0 0.1 0 0.1 0 0 0 0.1 0 0.1 0 0.1 0.1 0.4 0.2 0.7 0 0.1 0 0.1 0 0.1 0 0.1 0 0.1 0 0.1 0.1 0.1 0.1 0.3 0 0.1 0 0.1 0 0 0 0.1 0 0.1 0.1 0.1 0 0 0 0.1 0 0 0 0.1 0 0.1 0 0.1 0 0.1 0 0.1 0 0 0 0.1 0.1 0.1 0.1 0.1 0 0 0 0.1 0 0.1 0 0.1 0 0 0 0.1 0 0 0.1 0 0 0.1 0 0.2 0 0 0 0.1 0 0.1 0.1 0.3 0 0.1 0 0.2 0 0.2 0.1 0.4 0 0 0 0 0 0.1 0 0.1 0 0.2 0.1 0.3 0 0.2 0 0.3 0 0.1 0.1 0.1 0 0.1 0 0.1 0 0.2 0 0.3 0 0.1 0 0.1 0.1 0.1 0.1 0.1 0 0 0 0.1 0 0.1 0 0.1 0 0 0 0.1 0.1 0.2 0.1 0.3 0 0 0 0.1 0 0.1 0 0.1 0 0 0 0.1 0.1 0.1 0.1 0.1 0 0.1 0 0.2 0 0.1 0 0.2 0 0 0.1 0.1 0 0.1 0 0.1 0 0 0 0.1 0 0 0 0 0 0.1 0.1 0.3 0 0.1 0 0.1 0 0.2 0.1 0.4 0 0 0 0 0 0.1 0 0.2 0 0.1 0.1 0.2 0 0.1 0 0.2 0 0 0 0 0 0.1 0 0.2 0 0 0 0 0.1 0.1 0.1 0.2 0 0.2 0 0.2 0 0.1 0 0.1 0.1 0.1 0.1 0.1 0 0.2 0 0.5 0.1 0 0.1 0.1 0 0 0 0.1 0 0.1 0 0.1 0.1 0.2 0.1 0.5 0 0 0 0.1 0.1 0.1 0.1 0.3 0 0.1 0 0.1 0.1 0.2 0.1 0.5 0 0 0 0.1 0 0 0.1 0.1 0 0 0 0.1 0 0 0 0.1 0 0.1 0.1 0.2 0 0.1 0 0.1 0 0.1 0 0.1 0 0.2 0.1 0.5 0 0.1 0 0.1z"/>
	<path class="s0" d="m12 10.5q0 0.1 0.1 0.1 0.1 0.1 0.1 0.1c0.2 0 0.2 0 0.2 0.2 0.1 0.9 0 1.9 0.1 2.8 0 1.5 0 3.1 0 4.6q0 0.2 0 0.3-0.1 0.1 0 0.2c0 0.1-0.1 0.3 0 0.5 0 0.3-0.1 0.6 0 0.9q0 0.1 0 0.2 0 3.6 0 7.2 0 0.1 0 0.3 0 0.1 0 0.2 0 0.3 0 0.6 0 0.5 0 1 0 0.3 0 0.5 0 0.4 0 0.8 0 0.2 0 0.5 0 0.3 0 0.6 0 0.2 0 0.5 0 0.2 0 0.4 0 0.1 0 0.3 0 0.4-0.1 0.7c0 0.2 0.1 0.4 0.1 0.6 0 0.2-0.1 0.2-0.2 0.2q-0.1 0-0.1-0.1 0 0 0 0-0.1-0.1-0.2-0.1-0.1-0.2-0.3-0.4-0.1 0-0.1 0-0.1-0.1-0.2-0.3-0.1-0.1-0.2-0.1 0 0 0 0-0.2-0.2-0.3-0.3 0 0-0.1-0.1 0 0 0-0.1 0 0-0.1 0 0-0.1-0.1-0.1 0-0.1-0.1-0.2-0.1 0-0.1-0.1-0.1-0.1-0.2-0.2-0.2-0.1-0.2-0.2-0.5-0.5-1.1-1-0.1-0.1-0.2-0.2-0.1-0.1-0.1-0.2-0.1 0-0.1 0 0 0 0 0-0.1-0.1-0.1-0.1 0-0.1-0.1-0.1 0-0.1-0.1-0.1-0.1-0.1-0.2-0.2-0.1-0.1-0.1-0.1 0 0 0-0.1-0.1 0-0.2-0.1 0 0 0 0-0.1-0.1-0.1-0.1-0.1-0.1-0.2-0.2-0.2-0.2-0.1-0.4 0 0 0-0.1 0-0.1 0-0.2 0 0 0-0.1 0 0 0-0.1 0.1-0.2 0.1-0.4 0-0.1 0.1-0.1 0-0.1 0-0.1 0-0.1 0-0.2 0.1-0.2 0.1-0.4 0 0 0-0.1 0-0.1 0-0.1 0 0 0.1-0.1 0-0.2 0-0.3 0 0 0-0.1 0.1-0.1 0.1-0.1 0-0.1 0-0.1 0-0.1 0-0.1 0 0 0-0.1 0.1-0.3 0.1-0.5 0 0 0-0.1 0.1 0 0.1-0.1 0 0 0-0.1 0-0.2 0.1-0.5 0 0 0 0 0-0.1 0-0.2 0 0 0 0 0.1-0.3 0.1-0.6 0 0 0.1-0.1 0-0.3 0.1-0.7 0 0 0 0 0.1-0.5 0.2-0.9 0 0 0-0.1 0-0.1 0.1-0.2 0.1-0.5 0.2-1.1 0 0 0-0.1 0.1-0.3 0.1-0.6 0 0 0 0 0 0 0 0 0-0.1 0-0.2 0.1 0 0.1 0 0-0.1 0-0.2 0-0.2 0.1-0.4 0-0.1 0-0.1 0-0.1 0-0.1 0-0.1 0.1-0.1 0-0.4 0.1-0.7 0-0.1 0-0.1 0.1-0.3 0.1-0.5 0-0.1 0-0.1 0-0.1 0-0.1 0 0 0.1-0.1 0-0.3 0.1-0.5 0 0 0-0.1 0 0 0-0.1 0 0 0-0.1 0.1-0.2 0.1-0.5 0 0 0-0.1 0.1-0.3 0.2-0.6 0-0.1 0-0.1 0.1-0.4 0.1-0.7 0-0.1 0.1-0.1 0-0.1 0-0.1 0 0 0-0.1 0-0.2 0.1-0.3 0-0.1 0-0.1 0-0.1 0-0.1 0 0 0-0.1 0-0.1 0-0.1 0-0.1 0.1-0.1 0.1-0.5 0.1-0.9 0.1-0.2 0.1-0.3 0-0.1 0-0.2 0 0 0.1-0.1 0 0 0-0.1 0-0.2 0.1-0.5 0 0 0-0.1 0.1-0.3 0.1-0.6 0-0.1 0.1-0.1 0-0.4 0.1-0.6 0.2-0.2 0.4-0.2 0.2 0 0.3 0 0.1 0 0.1-0.1 0.1 0 0.1 0z"/>
	<path id="khad" class="s2" aria-label="khad"  d="m29.6 27v-6.7h5l3.3 3.3v3.4h3.4v-5l-3.4-3.4 3.4-3.3v-5.1h-3.4v3.4l-3.3 3.3h-5v-6.7h-3.4v16.8zm17.2 0v-6.7h8.4v6.7h3.3v-16.8h-3.3v6.7h-8.4v-6.7h-3.3v16.8zm17.2-8.4v-1.7l3.3-3.3h5.1v5zm0 8.4v-5h8.4v5h3.3v-16.8h-10.1l-5 5.1v11.7zm29.2-11.8l-5-5h-10.1v16.8h13.4l1.7-1.7zm-3.3 8.4h-8.4v-10h5l3.4 3.3z"/>
	<path id=".ma" class="s2" aria-label=".ma"  d="m97.5 23.5q0.2 0 1.2 0.8 0.9 0.8 0.9 1.1 0 0.3-0.9 1.1-1 0.8-1.2 0.8-0.3 0-1.2-0.8-1-0.8-1-1.1 0-0.3 1-1.1 0.9-0.8 1.2-0.8zm13.4-5.8v9.3h-3.1v-8.9q0-0.4-0.5-0.9-0.4-0.4-0.7-0.4-0.3 0-1 0.6v9.6h-3.1v-8.3q0-1.2-0.3-1.9-0.3-0.6-0.9-1.2l2.6-1.8q0.8 0.7 1.2 1.4 1.5-1.4 2.1-1.4 0.4 0 1.2 0.5 0.8 0.5 1.5 1.3 1.9-1.8 2.6-1.8 0.8 0 2.2 1.3 1.5 1.3 1.5 2.6v4.7q0 1.2 0.3 1.9 0.3 0.6 0.9 1.1l-2.6 1.9q-1.7-1.4-1.7-3.9v-5.3q0-0.4-0.5-0.9-0.4-0.4-0.7-0.4-0.3 0-1 0.6 0 0.2 0 0.3zm14.4-3.6h2.3v9.8q0.2 0.8 1.2 1.5l-2.2 1.8q-0.3-0.2-0.8-0.7-0.4-0.6-0.7-1.2-2 2-2.8 2-0.6 0-1.9-1.3-1.3-1.3-1.6-2-0.3-0.8-0.3-3.5 0-2.6 0.3-3.4 0.3-0.8 1.6-2.1 1.3-1.2 1.9-1.2 0.8 0 2.7 1.7zm-1 3.7q-0.2-0.3-0.7-0.6-0.5-0.4-0.8-0.4-0.2 0-0.5 0.3-0.3 0.3-0.4 0.6-0.3 0.4-0.3 2.9 0 2.4 0.3 2.8 0.1 0.3 0.4 0.6 0.3 0.3 0.5 0.3 0.3 0 0.8-0.3 0.5-0.3 0.7-0.6 0.1-0.2 0.2-2.8 0-2.5-0.2-2.8z"/>
</svg>